<svg xmlns="http://www.w3.org/2000/svg" viewBox="0 0 64 64"><title>Artboard-16</title><g id="World_Earth_day" data-name="World Earth day"><path d="M58,10H56a1,1,0,0,0-1,1v3a1.983,1.983,0,0,1-.587,1.413A2.023,2.023,0,0,1,52.852,16,2.129,2.129,0,0,1,51,13.831V11a1,1,0,0,0-1-1H42a1,1,0,0,0-1,1v3a1.983,1.983,0,0,1-.587,1.413A2.021,2.021,0,0,1,38.852,16,2.129,2.129,0,0,1,37,13.831V11a1,1,0,0,0-1-1H28a1,1,0,0,0-1,1v3a1.983,1.983,0,0,1-.587,1.413A2.019,2.019,0,0,1,24.852,16,2.129,2.129,0,0,1,23,13.831V11a1,1,0,0,0-1-1H14a1,1,0,0,0-1,1v3a1.983,1.983,0,0,1-.587,1.413A2.018,2.018,0,0,1,10.852,16,2.129,2.129,0,0,1,9,13.831V11a1,1,0,0,0-1-1H6a6.006,6.006,0,0,0-6,6V54a6.006,6.006,0,0,0,6,6H58a6.006,6.006,0,0,0,6-6V16A6.006,6.006,0,0,0,58,10Z" style="fill:#e6edff"/><path d="M58,10H56a1,1,0,0,0-1,1v3a1.983,1.983,0,0,1-.587,1.413A2.023,2.023,0,0,1,52.852,16,2.129,2.129,0,0,1,51,13.831V11a1,1,0,0,0-1-1H42a1,1,0,0,0-1,1v3a1.983,1.983,0,0,1-.587,1.413A2.021,2.021,0,0,1,38.852,16,2.129,2.129,0,0,1,37,13.831V11a1,1,0,0,0-1-1H28a1,1,0,0,0-1,1v3a1.983,1.983,0,0,1-.587,1.413A2.019,2.019,0,0,1,24.852,16,2.129,2.129,0,0,1,23,13.831V11a1,1,0,0,0-1-1H14a1,1,0,0,0-1,1v3a1.983,1.983,0,0,1-.587,1.413A2.018,2.018,0,0,1,10.852,16,2.129,2.129,0,0,1,9,13.831V11a1,1,0,0,0-1-1H6a6.006,6.006,0,0,0-6,6v6H64V16A6.006,6.006,0,0,0,58,10Z" style="fill:#e63b47"/><path d="M11,4A4,4,0,0,0,7,8v6a4,4,0,0,0,8,0V8A4,4,0,0,0,11,4Z" style="fill:#4aa4f2"/><path d="M25,4a4,4,0,0,0-4,4v6a4,4,0,0,0,8,0V8A4,4,0,0,0,25,4Z" style="fill:#4aa4f2"/><path d="M39,4a4,4,0,0,0-4,4v6a4,4,0,0,0,8,0V8A4,4,0,0,0,39,4Z" style="fill:#4aa4f2"/><path d="M53,4a4,4,0,0,0-4,4v6a4,4,0,0,0,8,0V8A4,4,0,0,0,53,4Z" style="fill:#4aa4f2"/><circle cx="32" cy="41" r="14" style="fill:#4aa4f2"/><path d="M41.16,30.42c-3.73-.02-6.04.48-7.15,1.53A3.812,3.812,0,0,0,33,34.93a4.288,4.288,0,0,1-3.15,4.11,4.655,4.655,0,0,1-1.41.22,4.484,4.484,0,0,1-3.73-1.99,3.212,3.212,0,0,0-3.99-1.05l-2.19.98a13.988,13.988,0,0,1,22.63-6.78Z" style="fill:#6ace95"/><path d="M37.33,53.94A13.7,13.7,0,0,1,32,55a14.033,14.033,0,0,1-13.41-9.97l2.05.71c.03.01,2.97.98,4.26-.67a4.723,4.723,0,0,1,4.41-2.13,4.861,4.861,0,0,1,3.63,3.34,35.1,35.1,0,0,0,3.63,6.59Z" style="fill:#6ace95"/><path d="M46,41a13.956,13.956,0,0,1-2.38,7.81l-.89-.72a43.324,43.324,0,0,1-4.45-4.15,6.057,6.057,0,0,1-1.47-4.96,3.019,3.019,0,0,1,1.85-2.16c1.34-.55,2.4-3.18,2.66-4.06l.51-1.72A13.977,13.977,0,0,1,46,41Z" style="fill:#6ace95"/></g></svg>